<?xml version="1.0" encoding="utf-8"?>
<!-- Generator: Adobe Illustrator 16.0.0, SVG Export Plug-In . SVG Version: 6.00 Build 0)  -->
<!DOCTYPE svg PUBLIC "-//W3C//DTD SVG 1.1//EN" "http://www.w3.org/Graphics/SVG/1.1/DTD/svg11.dtd">
<svg version="1.1" xmlns="http://www.w3.org/2000/svg" xmlns:xlink="http://www.w3.org/1999/xlink" x="0px" y="0px"
	 width="831.97px" height="831.97px" viewBox="0 0 831.97 831.97" enable-background="new 0 0 831.97 831.97" xml:space="preserve">
<g id="Laag_1" display="none">
	<g display="inline">
		<g>
			<path fill-rule="evenodd" clip-rule="evenodd" d="M401.746,318.989c-1.868-5.412-10.045-7.224-13.831-2.852
				c-0.645,0.743-0.195,3.78,0.542,4.142c3.178,1.56,6.651,2.519,10.017,3.696C401.791,323.354,402.767,321.945,401.746,318.989z
				 M411.405,407.428c0.024-1.396-1.893-3.523-3.423-4.102c-3.297-1.247-6.864-2.061-10.377-2.348
				c-1.929-0.158-3.975,1.114-5.969,1.742c0.989,1.871,1.55,4.804,3.05,5.408c3.9,1.571,8.213,2.121,13.409,3.32
				C409.185,410.228,411.381,408.846,411.405,407.428z M389.26,357.87c-1.67,0.557-3.897,2.49-3.961,3.934
				c-0.061,1.373,2.221,3.798,3.71,3.999c1.267,0.172,2.874-2.164,5.434-4.318C391.905,359.628,390.186,357.561,389.26,357.87z
				 M386.77,381.975c1.602,0.705,3.49,1.052,5.253,1.048c11.354-0.021,22.711-0.098,34.063-0.359c2.45-0.057,4.882-0.945,7.56-1.499
				c-1.621-7.599-1.615-7.564-7.868-6.521c-1.456,0.243-2.971,0.257-4.453,0.214c-10.413-0.302-20.824-0.672-31.238-0.94
				c-1.121-0.028-2.568,0.104-3.313,0.774c-1.342,1.206-2.683,2.757-3.155,4.412C383.437,379.742,385.471,381.402,386.77,381.975z
				 M397.449,338.359c-0.344-3.012-0.996-6.49-7.12-5.978c-0.537,0.712-2.979,3.359-2.705,3.679
				c1.893,2.208,4.269,4.061,6.745,5.626C394.645,341.861,397.567,339.395,397.449,338.359z M397.588,420.246
				c-2.652,2.784-6.015,4.799-5.831,6.408c0.521,4.563,5.108,4.365,8.521,4.575c2.062,0.127,6.188,0.27,4.798-3.441
				C404.072,425.105,400.75,423.29,397.588,420.246z M454.879,147.183c4.918-0.742,10.316-5.232,11.086-10.028
				c0.641-3.991-2.24-5.643-5.103-7.024c-3.763-1.816-7.676-3.426-10.734,1.141c-6.621-2.984-7.887-2.376-11.879,5.637
				C441.971,143.792,446.521,148.444,454.879,147.183z M375.828,190.628c9.854,1.438,20.154-5.825,21.352-15.746
				c0.276-2.288-0.773-5.516-2.395-7.104c-4.371-4.285-9.884-6.407-16.583-5.805c1.553,2.627,2.761,4.669,4.815,8.143
				c-3.415-0.785-5.333-1.481-7.289-1.605c-2.001-0.127-4.783-0.466-5.925,0.635c-3.84,3.699-5.228,8.707-3.424,13.747
				C367.859,187.025,371.027,189.927,375.828,190.628z M390.684,304.847c5.564-0.521,11.214-0.131,16.827-0.131
				c0.013-0.339,0.025-0.677,0.038-1.016c4.214,0.411,8.438,1.173,12.638,1.061c1.677-0.046,3.302-2.023,4.95-3.121
				c-1.259-1.234-2.417-3.407-3.792-3.554c-10.632-1.135-21.3-1.976-31.973-2.68c-2.983-0.197-5.406,1.536-4.91,4.734
				C384.938,303.209,386.666,305.223,390.684,304.847z M534.485,637.663c-5.211-7.859-10.216-15.866-15.722-23.513
				c-5.764-8.005-12.138-15.568-17.977-23.521c-1.61-2.193-2.831-4.999-3.253-7.678c-1.428-9.067-6.008-13.531-15.235-13.75
				c-3.638-0.087-7.324,0.151-10.919,0.7c-1.849,0.283-3.847,1.229-5.26,2.465c-9.879,8.639-18.791,18.311-31.205,23.928
				c-3.954,1.789-6.959,2.521-10.479,0.914c-6.925-3.158-13.972-6.204-20.408-10.199c-2.708-1.681-4.388-5.474-5.813-8.633
				c-1.471-3.26-1.881-6.979-3.076-10.386c-3.969-11.317-11.848-14.31-22.507-8.762c-1.983,1.032-4.111,1.786-6.172,2.668
				c-0.117-0.348-0.233-0.694-0.35-1.042c-2.254,0.467-4.63,0.623-6.742,1.452c-10.074,3.955-18.919,9.709-26.928,17.136
				c-4.755,4.41-9.329,8.5-12.619,14.321c-7.386,13.071-16.005,25.458-23.146,38.651c-4.378,8.089-10.91,15.289-11.729,25.223
				c-0.192,2.327-2.16,5.595-4.172,6.489c-7.161,3.183-9.602,8.935-11.041,15.964c-1.451,7.085,2.088,12.91,9.197,14.001
				c2.786,0.428,5.542,1.064,8.336,1.415c6.87,0.862,13.815,2.618,20.621,2.208c15.906-0.958,31.723-3.321,47.622-4.471
				c16.285-1.178,32.624-1.596,48.94-2.328c4.931-0.221,9.864-0.475,14.798-0.55c8.222-0.125,16.502-0.76,24.655-0.034
				c17.437,1.552,34.84,2.329,52.332,1.37c8.354-0.458,16.812-1.193,25.087-0.397c8.991,0.865,17.58,1.081,26.023-2.577
				c3.935-1.705,6.195-4.233,6.16-8.681c-0.011-1.369,0.09-3.368,0.942-4.004c3.254-2.428,2.572-4.547,0.597-7.444
				C548.066,658.371,541.327,647.982,534.485,637.663z M390.075,623.794c-0.45,12.191-9.243,18.338-21.735,18.099
				c-7.678-0.147-13.851-2.289-19.828-6.125c-9.326-5.985-10.484-15.647-2.528-23.287c5.385-5.171,10.042-11.562,17.769-13.656
				c2.255-0.611,4.909-0.951,7.105-0.373C380.852,601.085,390.438,613.978,390.075,623.794z M448.669,653.342
				c-6.273,0.314-12.386-4.92-12.674-10.325c-0.204-3.815,8.159-11.097,12.726-11.08c5.23,0.019,12.243,6.728,12.384,11.847
				C460.493,649.233,456.714,652.938,448.669,653.342z M477.78,618.991c-6.908-3.188-9.902-14.35-5.262-20.021
				c0.745-0.91,2.672-2.078,3.198-1.751c4.415,2.742,8.774,5.627,12.816,8.883c1.189,0.957,1.31,3.241,1.687,4.275
				C490.09,617.756,483.782,621.761,477.78,618.991z M415.984,0C186.243,0,0,186.242,0,415.984
				c0,229.741,186.243,415.984,415.984,415.984c229.741,0,415.984-186.243,415.984-415.984C831.969,186.242,645.726,0,415.984,0z
				 M453.004,120.459c0.034-0.112,0.067-0.225,0.102-0.338c3.7,0.806,7.424,1.516,11.096,2.433
				c12.422,3.104,13.313,15.662,7.381,23.911c-6.616,9.2-21.509,12.648-31.293,7.021c-9.01-5.183-12.941-20.072-6.013-27.322
				c3.296-3.449,9.706-3.977,14.765-5.646C450.238,120.122,451.677,120.459,453.004,120.459z M424.583,56.139
				c0.612-2.155,3.818-4.619,6.174-5.008c4.275-0.705,6.773,2.724,6.764,9.516c-0.681,0.662-2.079,3.223-3.846,3.509
				C428.872,64.934,423.431,60.2,424.583,56.139z M374.091,90.159c1.7,0.607,3.913,0.736,5.009,1.908
				c4.059,4.344,5.749,4.494,10.153,0.499c2.4-2.177,4.085-5.122,1.463-7.13c-1.751-1.34-5.953-1.147-8.054,0.079
				c-2.38,1.39-4.386,4.064-6.418,0.969c-0.894-1.363,0.185-5.243,1.647-6.645c2.18-2.088,5.493-2.991,8.68-4.576
				c3.944,1.782,7.864,2.645,10.555,4.945c6.929,5.925,0.77,19.518-6.195,21.725c-8.162,2.587-12.932,0.367-16.625-6.788
				C373.614,93.804,374.132,91.837,374.091,90.159z M381.25,154.092c17.402,1.069,25.52,9.197,25.219,20.423
				c-0.315,11.786-13.423,25.807-26.962,24.866c-13.747-0.483-22.718-8.548-22.312-20.057
				C357.678,165.672,369.188,153.352,381.25,154.092z M579.154,697.353c-4.077,6.395-9.258,11.184-16.066,14.294
				c-1.331,0.607-2.841,1.15-4.273,1.162c-13.228,0.108-26.459-0.061-39.684,0.167c-9.539,0.164-19.067,0.994-28.607,1.193
				c-12.918,0.269-25.842,0.227-38.764,0.302c-16.575,0.096-33.152,0.313-49.727,0.188c-5.721-0.043-11.438-1.395-17.154-1.378
				c-10.383,0.031-20.765,0.626-31.146,1.013c-5.075,0.188-10.147,0.455-15.222,0.653c-3.444,0.135-6.94-0.117-10.326,0.387
				c-6.646,0.989-13.284,2.162-19.83,3.673c-7.098,1.639-9.216,0.911-11.209-5.365c-5.243,0.477-10.693,1.755-15.982,1.269
				c-8.057-0.742-16.56-0.854-23.108-7.015c-3.596-3.383-7.616-6.361-10.909-10.007c-4.431-4.905-3.817-10.996-1.071-16.16
				c10.945-20.585,22.114-41.059,33.682-61.3c5.941-10.396,12.896-20.216,19.393-30.295c10.99-17.05,21.949-34.119,32.979-51.143
				c8.45-13.042,16.93-26.064,25.521-39.013c3.093-4.661,6.68-8.996,9.757-13.667c0.8-1.216,0.697-3.133,0.726-4.733
				c0.207-11.355,0.376-22.712,0.483-34.069c0.063-6.684,0.02-13.369-0.026-20.054c-0.113-16.547-0.257-33.094-0.382-49.641
				c-0.091-12.046-0.335-24.094-0.206-36.137c0.108-10.071,0.964-20.141,0.902-30.207c-0.039-6.265-1.192-12.521-1.798-18.786
				c-0.357-3.687-0.622-7.382-1.037-12.392c-6.385-0.414-13.456-0.662-20.479-1.378c-9.163-0.933-17.959-3.301-24.729-9.99
				c-3.726-3.681-5.001-8.669-3.745-13.797c1.384-5.649,6.452-7.349,11.255-8.433c2.51-0.566,5.166-1.81,8.388,0.438
				c2.143,1.495,6.381,0.119,9.664-0.176c13.826-1.239,27.641-2.61,41.469-3.827c11.194-0.985,22.393-1.966,33.606-2.671
				c8.12-0.512,16.27-0.577,24.405-0.828c2.98-0.092,5.986-0.42,8.937-0.152c4.03,0.365,8.005,1.617,12.026,1.734
				c6.954,0.203,13.927-0.164,20.892-0.31c2.739-0.058,5.49-0.354,8.215-0.192c3.126,0.184,4.165,3.134,2.532,5.84
				c-0.874,1.446-1.158,3.282-1.54,4.98c-0.253,1.124-0.002,2.378-0.33,3.468c-1.771,5.899-2.588,12.445-5.786,17.459
				c-3.448,5.407-7.643,11.642-16.364,9.809c-3.778-0.794-7.862-0.134-12.739-0.134c-0.761,23.209-1.711,46.149-2.172,69.1
				c-0.194,9.64,0.749,19.299,0.958,28.953c0.067,3.104-0.646,6.219-0.849,9.338c-0.353,5.455-0.724,10.915-0.841,16.379
				c-0.235,11.039,0.316,22.136-0.636,33.106c-0.804,9.276-1.414,18.353,0.094,27.621c1.119,6.883,1.239,13.931,1.739,20.909
				c0.415,5.794,3.604,10.38,7.471,14.017c10.411,9.79,17.746,21.808,25.265,33.659c6.06,9.552,10.937,19.854,17.019,29.391
				c4.295,6.734,9.891,12.626,14.566,19.137c1.634,2.274,1.859,5.535,3.407,7.9c7.16,10.939,14.752,21.598,21.813,32.599
				c5.692,8.872,10.75,18.148,16.271,27.134c4.32,7.032,8.932,13.885,13.388,20.834
				C584.621,680.601,584.609,688.796,579.154,697.353z M374.026,609.908c-6.018-1.136-11.379-1.669-16.195,2.93
				c-2.949,2.816-6.317,5.222-9.047,8.221c-0.644,0.707,0.033,3.458,0.943,4.595c4.495,5.615,10.924,6.903,18.034,8.191
				c3.938-1.485,8.151-2.5,11.734-4.592c3.466-2.024,5.375-5.793,3.738-9.846C381.525,615.178,379.787,610.996,374.026,609.908z
				 M390.23,445.88c-0.833,3.613,2.813,4.939,7.485,5.763c1.275-1.556,3.75-3.286,3.554-4.627c-0.322-2.211-2.371-4.17-3.692-6.235
				C395.001,442.451,390.726,443.73,390.23,445.88z M388.071,468.286c-0.142,1.045,0.684,3.033,1.465,3.25
				c3.202,0.885,6.548,1.252,10.642,1.945c6.535-1.68,13.815-3.516,21.072-5.438c2.037-0.54,4.823-1.122,3.416-4.032
				c-0.638-1.318-3.281-2.771-4.63-2.465c-9.76,2.212-19.352,5.244-29.597,4.25C389.686,465.723,388.202,467.325,388.071,468.286z"
				/>
		</g>
	</g>
</g>
<g id="Laag_2">
	<g>
		<g>
			<path fill-rule="evenodd" clip-rule="evenodd" d="M457.676,530.614c-0.966,2.066-0.292,5.099,3.414,5.09
				c9.429-0.021,18.871,0.275,28.284-0.126c11.243-0.479,22.464-1.523,33.69-2.373c6.869-0.519,13.73-1.13,21.453-1.771
				c-16.497-39.967-23.128-81.605-26.635-124.854c-2.569,1.951-4.262,3.456-6.155,4.64c-14.298,8.939-28.626,17.824-39.288,31.323
				c-0.378,0.479-0.859,1.013-1.404,1.204c-3.929,1.387-8.06,2.343-11.756,4.181c-1.689,0.84-3.243,3.233-3.615,5.161
				c-0.641,3.327-0.055,6.868-0.433,10.27c-1.267,11.389,2.046,22.219,3.622,33.279
				C460.467,507.962,462.925,519.379,457.676,530.614z M338.27,578.591c-2.318-7.728-5.002-15.414-6.434-23.316
				c-1.213-6.683-4.502-13.173,0.163-20.666c2.864-4.601,1.192-11.781,2.952-17.363c4.677-14.836,10.179-29.411,15.207-44.139
				c1.826-5.347,5.532-10.639,1.104-16.545c-0.65-0.866-0.182-2.532-0.337-3.815c-0.647-5.38,0.044-11.467-2.286-15.99
				c-5.419-10.519-6.965-21.671-8.146-33.033c-1.062-10.213-1.493-20.503-2.862-30.669c-3.313-24.598-7.069-49.135-10.538-73.712
				c-3.38-23.937-6.4-47.927-10.025-71.826c-1.775-11.71-1.978-23.589-6.045-35.104c-2.864-8.105-2.785-17.252-4.168-26.977
				c-16.002,1.234-31.863,2.458-48.686,3.756c-1.434,8.25-2.584,16.152-4.211,23.955c-3.261,15.637-6.713,31.235-10.246,46.813
				c-0.868,3.826-2.73,7.438-3.478,11.276c-1.808,9.284-2.896,18.716-4.877,27.958c-3.291,15.352-7.156,30.58-10.587,45.903
				c-2.49,11.12-4.66,22.312-6.992,33.467c-2.109,10.089-4.509,20.126-6.304,30.27c-2.7,15.254-4.825,30.609-7.567,45.854
				c-0.609,3.39,0.064,5.946,1.456,8.863c7.765,16.275,15.398,32.615,22.989,48.973c5.918,12.754,11.442,25.698,17.627,38.319
				c6.527,13.317,14.022,26.167,20.37,39.564c6.047,12.764,11.082,26.003,16.797,38.93c0.602,1.36,2.813,2.916,4.23,2.872
				c18.725-0.582,37.413-0.979,55.838,3.366c0.795,0.188,1.65,0.19,2.475,0.167c2.774-0.076,3.809-1.068,2.83-4.094
				C344.971,600.673,341.583,589.642,338.27,578.591z M502.348,541.903c-8.701,0.588-17.371,1.835-26.076,2.111
				c-8.27,0.264-16.566-0.548-24.852-0.533c-10.47,0.019-20.939,0.362-31.407,0.63c-7.124,0.182-14.243,0.57-21.368,0.692
				c-14.533,0.251-29.071,0.62-43.602,0.447c-5.643-0.067-11.27-1.468-17.268-2.312c11.108,41.312,26.791,80.891,35.01,121.821
				c3.407,0.335,7.537,2.06,9.517,0.687c5.952-4.128,12.217-2.043,18.315-2.459c14.232-0.972,28.486-1.633,42.721-2.584
				c10.891-0.729,21.768-1.675,32.646-2.587c9.864-0.827,19.717-1.783,29.582-2.595c5.219-0.43,10.476-0.47,15.668-1.081
				c2.681-0.316,5.259-1.497,8.093-2.35c-3.62-6.389-4.53-13.485-2.559-20.726c1.126-4.132,3.666-7.911,4.566-12.065
				c3.154-14.541,6.102-29.137,8.684-43.79c2.057-11.672,3.464-23.458,5.253-35.84c-3.328,0.233-7.599,0.583-11.876,0.824
				C523.046,540.78,512.688,541.206,502.348,541.903z M723.361,374.502c-0.491-7.042-0.128-14.14-0.316-21.208
				c-0.057-2.14-0.695-4.265-1.055-6.326c-5.292,3.181-9.934,6.341-14.894,8.879c-12.162,6.224-24.434,12.239-36.73,18.194
				c-13.648,6.609-27.293,13.237-41.092,19.521c-10.646,4.848-21.74,8.743-32.25,13.854c-11.726,5.701-22.9,12.527-34.532,18.436
				c-9.985,5.071-20.278,9.538-30.764,14.425c0,1.367-0.417,3.86,0.073,6.16c1.989,9.335,3.991,18.682,6.479,27.893
				c4.896,18.122,10.064,36.172,15.298,54.2c0.447,1.539,1.987,3.104,3.435,3.938c2.84,1.634,3.803,5.229,1.747,7.813
				c-0.876,1.103-1.593,2.348-2.276,3.587c-5.197,9.412-4.847,19.96-6.2,30.171c-0.497,3.753-1.414,7.45-2.14,11.174
				c0.31,0.208,0.619,0.416,0.929,0.623c0.432-0.714,0.769-1.51,1.309-2.129c16.684-19.114,33.01-38.561,50.226-57.184
				c10.885-11.774,22.939-22.493,34.761-33.369c18.577-17.092,35.437-35.91,54.34-52.725c12.897-11.474,23.856-25.133,35.568-37.92
				c0.781-0.853,0.93-2.633,0.795-3.921C725.229,390.552,723.924,382.554,723.361,374.502z M415.984,0
				C186.243,0,0,186.242,0,415.984c0,229.741,186.243,415.984,415.984,415.984c229.741,0,415.984-186.243,415.984-415.984
				C831.969,186.242,645.726,0,415.984,0z M734.414,406.106c-9.566,5.421-14.91,14.907-22.205,22.5
				c-7.905,8.229-15.969,16.311-24.085,24.332c-9.638,9.525-19.477,18.847-29.096,28.391c-10.006,9.926-19.957,19.912-29.738,30.059
				c-8.35,8.662-16.368,17.643-24.66,26.361c-1.88,1.976-4.353,3.373-6.424,5.185c-1.728,1.512-3.403,3.126-4.869,4.888
				c-12.619,15.169-25.106,30.449-37.836,45.524c-2.508,2.97-6.298,4.87-8.733,7.882c-1.623,2.006-1.947,5.09-2.757,7.721
				c-1.983,6.45-4.019,12.888-5.828,19.388c-1.464,5.26-2.63,10.603-3.901,15.804c7.066,2.462,7.962,5.043,4.461,10.664
				c-6.435,10.334-12.986,20.595-19.407,30.937c-10.732,17.288-21.331,34.66-32.119,51.914
				c-8.241,13.182-16.723,26.214-25.016,39.364c-1.757,2.786-3.132,5.811-4.73,8.699c-2.241,4.048-4.407,4.228-8.377,2.271
				c-12.306-6.063-18.357-17.694-25.684-28.171c-12.452-17.811-24.81-35.688-37.046-53.648
				c-7.346-10.782-14.506-21.696-21.479-32.723c-1.765-2.792-2.006-5.854-1.363-9.7c0.843-5.04-0.764-10.728-2.256-15.864
				c-2.344-8.07-5.394-15.943-8.363-23.817c-0.41-1.089-2.209-2.563-3.121-2.41c-7.363,1.232-14.479,2.184-22.121,0.538
				c-5.646-1.216-12.224-3.658-17.762,1.654c-0.57,0.547-2.85-1.072-4.281-0.964c-4.084,0.308-8.156,0.881-12.201,1.546
				c-7.654,1.259-13.086-1.563-16.265-8.749c-1.208-2.731-2.331-5.515-3.274-8.347c-0.842-2.524-1.776-3.876-4.771-5.14
				c-2.947-1.243-4.861-5.846-6.394-9.341c-3.06-6.982-5.302-14.322-8.328-21.321c-4.774-11.045-9.878-21.947-14.909-32.88
				c-11.009-23.923-21.968-47.87-33.146-71.714c-3.489-7.442-7.698-14.545-11.401-21.891c-1.212-2.405-1.447-4.703-0.404-7.769
				c1.731-5.089,1.753-10.739,2.706-16.115c2.541-14.336,5.065-28.677,7.843-42.967c2.211-11.374,4.817-22.67,7.19-34.013
				c1.926-9.212,3.752-18.444,5.647-27.663c3.681-17.909,7.286-35.836,11.116-53.714c1.594-7.443,3.694-14.778,5.542-22.168
				c0.311-1.241,0.507-2.511,1.053-5.268c-12.684,1.47-24.563,2.643-36.378,4.272c-11.452,1.581-22.846,3.588-34.252,5.486
				c-15.059,2.507-30.092,5.175-45.169,7.569c-2.921,0.464-6.698,1.584-8.216-2.408c-1.058-2.783,2.747-5.634,7.467-5.769
				c3.736-0.107,6.19-1.575,8.665-4.687c2.435-3.062,6.494-4.886,9.96-7.062c20.479-12.854,41.013-25.622,61.488-38.483
				c12.782-8.028,25.47-16.208,38.259-24.226c2.083-1.306,4.405-2.318,6.737-3.118c3.175-1.089,5.45-2.477,5.726-6.369
				c0.297-4.194,3.683-2.21,5.853-2.191c3.175,0.028,6.368,0.729,9.519,0.544c12.25-0.718,24.48-1.756,36.729-2.495
				c4.508-0.271,9.046-0.044,13.263-0.044c1.443,13.375,1.997,26.759,6.644,39.716c2.35,6.551,2.344,13.946,3.411,20.958
				c0.855,5.615,1.76,11.223,2.578,16.842c1.347,9.249,2.594,18.512,3.969,27.756c2.996,20.146,6.279,40.253,8.969,60.439
				c1.222,9.168,1.121,18.504,1.999,27.728c0.416,4.371,1.994,8.622,2.572,12.99c1.491,11.28,2.748,22.592,4.044,33.897
				c0.877,7.651,1.203,15.402,2.652,22.939c0.953,4.955,3.679,9.543,5.221,14.419c1.218,3.853,1.842,7.893,2.916,12.683
				c3.699-8.507,6.926-16.302,10.49-23.94c1.389-2.977,3.295-5.804,5.414-8.323c1.957-2.327,4.251-2.847,6.625,0.147
				c1.043,1.314,3.095,2.377,4.787,2.543c14.934,1.468,29.822,3.682,43.181,10.682c10.507,5.506,22.064,3.575,32.825,6.615
				c1.397,0.395,3.711-1.116,5.117-2.312c8.208-6.981,15.878-14.66,24.497-21.073c8.337-6.203,17.547-11.251,26.484-16.621
				c3.659-2.197,7.865,0.57,7.533,4.784c-0.862,10.937,0.871,21.552,3.702,32.788c5.092-2.184,9.613-3.155,13.631-6.911
				c4.18-3.908,10.413-5.602,15.712-8.333c15.935-8.212,31.708-16.75,47.813-24.608c16.523-8.062,33.359-15.483,50.072-23.154
				c2.852-1.309,4.107-2.914,4.707-6.516c1.511-9.074-0.439-17.761-1.097-26.614c-0.512-6.898-0.482-13.837-0.684-20.758
				c-0.394-13.59-0.775-27.18-1.186-40.77c-0.015-0.479-0.447-0.979-0.382-1.425c0.697-4.739-0.087-8.975-4.201-11.822
				c2.482-4.089,10.266-4.055,12.79-0.415c5.748,8.287,11.726,16.421,17.296,24.824c8.01,12.084,18.293,22.082,28.429,32.277
				c3.224,3.243,5.575,7.405,8.063,11.313c3.411,5.357,6.582,10.868,9.832,16.327c0.406,0.684,0.979,1.46,0.958,2.178
				c-0.54,18.17,0.783,36.226,3.04,54.24C735.867,403.26,735.362,405.569,734.414,406.106z"/>
		</g>
	</g>
</g>
</svg>
